<svg width="180" height="140" viewBox="0 0 180 140" fill="none" xmlns="http://www.w3.org/2000/svg">
  <g opacity="0.9" fill="#3B82F6">
    <circle cx="10" cy="10" r="3"/><circle cx="30" cy="10" r="3"/><circle cx="50" cy="10" r="3"/><circle cx="70" cy="10" r="3"/><circle cx="90" cy="10" r="3"/><circle cx="110" cy="10" r="3"/><circle cx="130" cy="10" r="3"/><circle cx="150" cy="10" r="3"/><circle cx="170" cy="10" r="3"/>
    <circle cx="10" cy="30" r="3"/><circle cx="30" cy="30" r="3"/><circle cx="50" cy="30" r="3"/><circle cx="70" cy="30" r="3"/><circle cx="90" cy="30" r="3"/><circle cx="110" cy="30" r="3"/><circle cx="130" cy="30" r="3"/><circle cx="150" cy="30" r="3"/><circle cx="170" cy="30" r="3"/>
    <circle cx="10" cy="50" r="3"/><circle cx="30" cy="50" r="3"/><circle cx="50" cy="50" r="3"/><circle cx="70" cy="50" r="3"/><circle cx="90" cy="50" r="3"/><circle cx="110" cy="50" r="3"/><circle cx="130" cy="50" r="3"/><circle cx="150" cy="50" r="3"/><circle cx="170" cy="50" r="3"/>
    <circle cx="10" cy="70" r="3"/><circle cx="30" cy="70" r="3"/><circle cx="50" cy="70" r="3"/><circle cx="70" cy="70" r="3"/><circle cx="90" cy="70" r="3"/><circle cx="110" cy="70" r="3"/><circle cx="130" cy="70" r="3"/><circle cx="150" cy="70" r="3"/><circle cx="170" cy="70" r="3"/>
    <circle cx="10" cy="90" r="3"/><circle cx="30" cy="90" r="3"/><circle cx="50" cy="90" r="3"/><circle cx="70" cy="90" r="3"/><circle cx="90" cy="90" r="3"/><circle cx="110" cy="90" r="3"/><circle cx="130" cy="90" r="3"/><circle cx="150" cy="90" r="3"/><circle cx="170" cy="90" r="3"/>
    <circle cx="10" cy="110" r="3"/><circle cx="30" cy="110" r="3"/><circle cx="50" cy="110" r="3"/><circle cx="70" cy="110" r="3"/><circle cx="90" cy="110" r="3"/><circle cx="110" cy="110" r="3"/><circle cx="130" cy="110" r="3"/><circle cx="150" cy="110" r="3"/><circle cx="170" cy="110" r="3"/>
    <circle cx="10" cy="130" r="3"/><circle cx="30" cy="130" r="3"/><circle cx="50" cy="130" r="3"/><circle cx="70" cy="130" r="3"/><circle cx="90" cy="130" r="3"/><circle cx="110" cy="130" r="3"/><circle cx="130" cy="130" r="3"/><circle cx="150" cy="130" r="3"/>
  </g>
</svg>
